<?xml version="1.0" encoding="UTF-8"?>
<svg id="Layer_1" data-name="Layer 1" xmlns="http://www.w3.org/2000/svg" viewBox="0 0 661.49 193.04">
  <defs>
    <style>
      .cls-1 {
        fill: #fff;
      }
    </style>
  </defs>
  <g>
    <path class="cls-1" d="M131.28,144.6c-8.9,6.97-19.73,10.45-32.48,10.45-8.58,0-16.27-1.55-23.07-4.66-6.81-3.11-12.54-7.37-17.21-12.78-4.66-5.41-8.23-11.79-10.69-19.13-2.47-7.34-3.7-15.2-3.7-23.56s1.23-16.21,3.7-23.56c2.46-7.34,6.03-13.72,10.69-19.13,4.67-5.41,10.4-9.67,17.21-12.78,6.8-3.11,14.5-4.66,23.07-4.66s16.24,1.56,23,4.66c6.75,3.11,12.46,7.37,17.12,12.78,4.67,5.41,8.23,11.79,10.7,19.13,2.46,7.34,3.7,15.19,3.7,23.56,0,9.43-1.48,18.01-4.42,25.73-2.95,7.72-7.21,14.31-12.78,19.78l17.85,12.86-3.7,4.98-18.97-13.67Zm-.81-8.2c5.15-5.15,9.06-11.26,11.74-18.33s4.02-14.79,4.02-23.15c0-7.4-1.07-14.36-3.22-20.9-2.14-6.54-5.25-12.25-9.32-17.12-4.08-4.88-9.03-8.76-14.88-11.66s-12.52-4.34-20.02-4.34-14.2,1.45-20.1,4.34c-5.89,2.89-10.88,6.78-14.95,11.66-4.08,4.88-7.18,10.59-9.33,17.12-2.15,6.54-3.21,13.51-3.21,20.9s1.07,14.37,3.21,20.9c2.15,6.54,5.25,12.25,9.33,17.12,4.07,4.88,9.06,8.76,14.95,11.66,5.9,2.89,12.6,4.34,20.1,4.34,10.61,0,19.56-2.84,26.85-8.52l-17.37-12.38,3.7-4.98,18.49,13.35Z"/>
    <path class="cls-1" d="M185.15,37.51V106.33c0,2.25,.11,4.88,.32,7.88,.21,3,.75,6.09,1.61,9.25,.86,3.16,2.06,6.27,3.62,9.33,1.55,3.05,3.67,5.79,6.35,8.2,2.68,2.41,5.97,4.34,9.89,5.79,3.91,1.45,8.66,2.17,14.23,2.17,7.07,0,13-.99,17.77-2.97,4.77-1.98,8.63-4.82,11.58-8.52,2.95-3.7,5.06-8.17,6.35-13.43,1.29-5.25,1.93-11.15,1.93-17.69V37.51h7.07V106.33c0,6.86-.72,13.24-2.17,19.14-1.45,5.9-3.89,11.04-7.32,15.44-3.43,4.4-8.02,7.85-13.75,10.37-5.73,2.52-12.89,3.78-21.47,3.78-6.75,0-12.54-.86-17.37-2.57-4.82-1.71-8.82-3.94-11.98-6.67-3.16-2.73-5.66-5.87-7.48-9.41-1.82-3.54-3.22-7.1-4.18-10.69-.96-3.59-1.55-7.07-1.77-10.45-.21-3.38-.32-6.35-.32-8.92V37.51h7.07Z"/>
    <path class="cls-1" d="M295.77,37.51h7.07v114.81h-7.07V37.51Z"/>
    <path class="cls-1" d="M431.8,37.51h77.18v6.11h-70.11v45.99h65.93v6.11h-65.93v50.49h70.91v6.11h-77.99V37.51Z"/>
    <path class="cls-1" d="M531.49,37.51h47.92c5.04,0,9.75,.51,14.15,1.53,4.39,1.02,8.25,2.68,11.58,4.98,3.32,2.31,5.92,5.33,7.8,9.09,1.87,3.75,2.81,8.42,2.81,13.99,0,7.72-2.17,14.23-6.51,19.54-4.34,5.31-10.37,8.6-18.09,9.89v.32c5.25,.64,9.41,2.04,12.46,4.18,3.05,2.15,5.33,4.77,6.83,7.88,1.5,3.11,2.46,6.54,2.89,10.29,.43,3.75,.64,7.5,.64,11.26v6.59c0,2.15,.11,4.16,.32,6.03,.21,1.88,.56,3.62,1.05,5.23,.48,1.61,1.15,2.95,2.01,4.02h-7.88c-1.5-2.68-2.33-5.81-2.49-9.41-.16-3.59-.24-7.32-.24-11.17s-.16-7.69-.48-11.5c-.32-3.8-1.34-7.21-3.05-10.21-1.72-3-4.42-5.41-8.12-7.24-3.7-1.82-8.92-2.73-15.68-2.73h-40.84v52.26h-7.07V37.51Zm47.92,56.44c4.18,0,8.06-.51,11.66-1.53,3.59-1.02,6.67-2.6,9.25-4.74,2.57-2.14,4.61-4.88,6.11-8.2,1.5-3.32,2.25-7.29,2.25-11.9,0-4.29-.8-7.96-2.41-11.01-1.61-3.05-3.75-5.55-6.43-7.48-2.68-1.93-5.79-3.32-9.33-4.18-3.54-.86-7.24-1.29-11.09-1.29h-40.84v50.33h40.84Z"/>
  </g>
  <polygon class="cls-1" points="368.7 82.07 327.07 34.81 327.07 65.91 368.7 116.15 368.7 82.07"/>
  <polygon class="cls-1" points="327.07 98.49 368.7 157.79 368.7 126.34 327.07 76.1 327.07 98.49"/>
  <polygon class="cls-1" points="375.67 82.07 417.3 34.81 417.3 65.91 375.67 116.15 375.67 82.07"/>
  <polygon class="cls-1" points="417.3 98.49 375.67 157.79 375.67 126.34 417.3 76.1 417.3 98.49"/>
</svg>